<?xml version="1.0" encoding="UTF-8"?>
<svg xmlns="http://www.w3.org/2000/svg" xmlns:xlink="http://www.w3.org/1999/xlink" width="854" height="480" viewBox="0 0 854 480">
<defs>
<g>
<g id="glyph-0-0">
<path d="M 3.414062 -2.597656 C 3.414062 -2.402344 3.375 -2.234375 3.292969 -2.09375 C 3.214844 -1.953125 3.101562 -1.839844 2.960938 -1.75 C 2.816406 -1.660156 2.648438 -1.59375 2.460938 -1.554688 C 2.273438 -1.511719 2.0625 -1.492188 1.828125 -1.492188 L 1.542969 -1.492188 L 1.542969 -0.515625 C 1.542969 -0.460938 1.554688 -0.40625 1.574219 -0.363281 C 1.597656 -0.320312 1.640625 -0.289062 1.703125 -0.261719 C 1.734375 -0.25 1.789062 -0.234375 1.859375 -0.21875 C 1.933594 -0.203125 1.996094 -0.195312 2.046875 -0.191406 L 2.046875 0 L 0.167969 0 L 0.167969 -0.191406 C 0.214844 -0.195312 0.277344 -0.203125 0.355469 -0.210938 C 0.433594 -0.21875 0.488281 -0.230469 0.519531 -0.242188 C 0.582031 -0.269531 0.625 -0.300781 0.644531 -0.339844 C 0.667969 -0.375 0.675781 -0.429688 0.675781 -0.496094 L 0.675781 -2.9375 C 0.675781 -2.996094 0.667969 -3.046875 0.648438 -3.085938 C 0.628906 -3.128906 0.585938 -3.164062 0.519531 -3.191406 C 0.472656 -3.210938 0.414062 -3.226562 0.339844 -3.242188 C 0.261719 -3.257812 0.207031 -3.269531 0.167969 -3.273438 L 0.167969 -3.464844 L 2.078125 -3.464844 C 2.527344 -3.464844 2.863281 -3.394531 3.082031 -3.25 C 3.304688 -3.109375 3.414062 -2.890625 3.414062 -2.597656 M 2.464844 -2.472656 C 2.464844 -2.734375 2.410156 -2.925781 2.304688 -3.054688 C 2.199219 -3.179688 2.015625 -3.242188 1.746094 -3.242188 L 1.542969 -3.242188 L 1.542969 -1.722656 L 1.644531 -1.722656 C 1.914062 -1.722656 2.117188 -1.78125 2.253906 -1.90625 C 2.394531 -2.027344 2.464844 -2.21875 2.464844 -2.472656 Z "/>
</g>
<g id="glyph-0-1">
<path d="M 3.929688 0 L 2.039062 0 L 2.039062 -0.191406 C 2.128906 -0.195312 2.230469 -0.210938 2.351562 -0.238281 C 2.46875 -0.261719 2.527344 -0.292969 2.527344 -0.332031 C 2.527344 -0.34375 2.527344 -0.359375 2.523438 -0.375 C 2.523438 -0.390625 2.515625 -0.414062 2.503906 -0.441406 L 2.207031 -1.160156 L 1.011719 -1.160156 C 0.984375 -1.09375 0.953125 -1.015625 0.921875 -0.925781 C 0.886719 -0.835938 0.859375 -0.757812 0.835938 -0.6875 C 0.804688 -0.59375 0.785156 -0.527344 0.78125 -0.488281 C 0.773438 -0.449219 0.773438 -0.417969 0.773438 -0.402344 C 0.773438 -0.351562 0.8125 -0.304688 0.890625 -0.269531 C 0.96875 -0.234375 1.101562 -0.207031 1.285156 -0.191406 L 1.285156 0 L -0.136719 0 L -0.136719 -0.191406 C -0.0820312 -0.195312 -0.0234375 -0.203125 0.046875 -0.214844 C 0.113281 -0.230469 0.164062 -0.25 0.203125 -0.273438 C 0.273438 -0.3125 0.328125 -0.359375 0.375 -0.417969 C 0.421875 -0.472656 0.460938 -0.542969 0.492188 -0.621094 C 0.679688 -1.078125 0.867188 -1.535156 1.058594 -1.996094 C 1.246094 -2.453125 1.457031 -2.960938 1.6875 -3.511719 L 2.175781 -3.511719 C 2.496094 -2.730469 2.742188 -2.109375 2.925781 -1.652344 C 3.105469 -1.195312 3.257812 -0.820312 3.386719 -0.519531 C 3.40625 -0.472656 3.433594 -0.425781 3.46875 -0.386719 C 3.5 -0.347656 3.546875 -0.308594 3.605469 -0.273438 C 3.652344 -0.246094 3.703125 -0.226562 3.765625 -0.214844 C 3.824219 -0.203125 3.878906 -0.195312 3.929688 -0.191406 L 3.929688 0 M 2.109375 -1.402344 L 1.605469 -2.652344 L 1.113281 -1.402344 Z "/>
</g>
<g id="glyph-0-2">
<path d="M 4.144531 0 L 2.816406 0 C 2.585938 -0.351562 2.394531 -0.632812 2.242188 -0.839844 C 2.09375 -1.046875 1.902344 -1.289062 1.675781 -1.5625 L 1.542969 -1.5625 L 1.542969 -0.511719 C 1.542969 -0.453125 1.554688 -0.402344 1.574219 -0.359375 C 1.597656 -0.320312 1.640625 -0.285156 1.703125 -0.257812 C 1.734375 -0.246094 1.78125 -0.230469 1.847656 -0.21875 C 1.914062 -0.203125 1.96875 -0.195312 2.015625 -0.191406 L 2.015625 0 L 0.167969 0 L 0.167969 -0.191406 C 0.214844 -0.195312 0.277344 -0.203125 0.355469 -0.210938 C 0.433594 -0.21875 0.488281 -0.230469 0.519531 -0.242188 C 0.582031 -0.269531 0.625 -0.304688 0.644531 -0.34375 C 0.664062 -0.382812 0.675781 -0.433594 0.675781 -0.496094 L 0.675781 -2.9375 C 0.675781 -3 0.667969 -3.046875 0.648438 -3.085938 C 0.632812 -3.125 0.589844 -3.160156 0.519531 -3.1875 C 0.46875 -3.210938 0.40625 -3.226562 0.335938 -3.242188 C 0.265625 -3.257812 0.210938 -3.265625 0.167969 -3.273438 L 0.167969 -3.464844 L 2.113281 -3.464844 C 2.546875 -3.464844 2.875 -3.394531 3.101562 -3.261719 C 3.328125 -3.125 3.441406 -2.917969 3.441406 -2.644531 C 3.441406 -2.402344 3.371094 -2.207031 3.230469 -2.058594 C 3.09375 -1.910156 2.878906 -1.796875 2.59375 -1.714844 C 2.707031 -1.570312 2.835938 -1.40625 2.980469 -1.214844 C 3.128906 -1.027344 3.28125 -0.835938 3.441406 -0.636719 C 3.492188 -0.574219 3.5625 -0.496094 3.648438 -0.402344 C 3.734375 -0.3125 3.8125 -0.253906 3.878906 -0.234375 C 3.917969 -0.222656 3.964844 -0.214844 4.023438 -0.203125 C 4.078125 -0.195312 4.121094 -0.191406 4.144531 -0.191406 L 4.144531 0 M 2.484375 -2.574219 C 2.484375 -2.808594 2.417969 -2.976562 2.289062 -3.082031 C 2.160156 -3.1875 1.976562 -3.242188 1.734375 -3.242188 L 1.542969 -3.242188 L 1.542969 -1.792969 L 1.726562 -1.792969 C 1.96875 -1.792969 2.152344 -1.855469 2.285156 -1.980469 C 2.417969 -2.105469 2.484375 -2.304688 2.484375 -2.574219 Z "/>
</g>
<g id="glyph-0-3">
<path d="M 3.390625 -2.472656 L 3.199219 -2.472656 C 3.148438 -2.621094 3.066406 -2.78125 2.957031 -2.949219 C 2.84375 -3.117188 2.742188 -3.210938 2.648438 -3.222656 C 2.597656 -3.230469 2.53125 -3.234375 2.457031 -3.238281 C 2.378906 -3.246094 2.3125 -3.246094 2.257812 -3.246094 L 2.144531 -3.246094 L 2.144531 -0.53125 C 2.144531 -0.472656 2.152344 -0.417969 2.175781 -0.375 C 2.195312 -0.328125 2.238281 -0.292969 2.300781 -0.269531 C 2.335938 -0.253906 2.394531 -0.238281 2.472656 -0.222656 C 2.554688 -0.207031 2.621094 -0.195312 2.675781 -0.191406 L 2.675781 0 L 0.746094 0 L 0.746094 -0.191406 C 0.792969 -0.195312 0.859375 -0.203125 0.945312 -0.210938 C 1.027344 -0.21875 1.085938 -0.230469 1.117188 -0.242188 C 1.179688 -0.269531 1.222656 -0.304688 1.246094 -0.347656 C 1.265625 -0.394531 1.277344 -0.445312 1.277344 -0.503906 L 1.277344 -3.246094 L 1.164062 -3.246094 C 1.105469 -3.246094 1.042969 -3.246094 0.964844 -3.238281 C 0.890625 -3.234375 0.824219 -3.230469 0.773438 -3.222656 C 0.679688 -3.210938 0.574219 -3.117188 0.464844 -2.949219 C 0.351562 -2.78125 0.273438 -2.621094 0.222656 -2.472656 L 0.03125 -2.472656 L 0.03125 -3.464844 L 3.390625 -3.464844 Z "/>
</g>
<g id="glyph-0-4">
<path d="M 2.074219 0 L 0.152344 0 L 0.152344 -0.191406 C 0.199219 -0.195312 0.261719 -0.199219 0.347656 -0.203125 C 0.433594 -0.210938 0.492188 -0.222656 0.523438 -0.234375 C 0.585938 -0.257812 0.625 -0.289062 0.648438 -0.332031 C 0.671875 -0.371094 0.679688 -0.421875 0.679688 -0.484375 L 0.679688 -2.9375 C 0.679688 -2.996094 0.671875 -3.042969 0.648438 -3.085938 C 0.628906 -3.128906 0.585938 -3.164062 0.523438 -3.1875 C 0.484375 -3.203125 0.429688 -3.222656 0.351562 -3.238281 C 0.273438 -3.253906 0.210938 -3.265625 0.152344 -3.273438 L 0.152344 -3.464844 L 2.074219 -3.464844 L 2.074219 -3.273438 C 2.027344 -3.269531 1.964844 -3.261719 1.890625 -3.253906 C 1.820312 -3.246094 1.757812 -3.230469 1.707031 -3.214844 C 1.644531 -3.195312 1.601562 -3.160156 1.578125 -3.117188 C 1.558594 -3.070312 1.546875 -3.019531 1.546875 -2.964844 L 1.546875 -0.511719 C 1.546875 -0.453125 1.558594 -0.402344 1.582031 -0.359375 C 1.601562 -0.320312 1.644531 -0.285156 1.707031 -0.257812 C 1.742188 -0.242188 1.796875 -0.230469 1.875 -0.214844 C 1.957031 -0.203125 2.023438 -0.195312 2.074219 -0.191406 Z "/>
</g>
<g id="glyph-0-5">
<path d="M 3.429688 -1.109375 L 3.359375 0 L 0.167969 0 L 0.167969 -0.191406 C 0.226562 -0.195312 0.292969 -0.203125 0.367188 -0.214844 C 0.445312 -0.222656 0.496094 -0.234375 0.519531 -0.242188 C 0.578125 -0.265625 0.621094 -0.296875 0.640625 -0.339844 C 0.664062 -0.378906 0.675781 -0.433594 0.675781 -0.496094 L 0.675781 -2.9375 C 0.675781 -3 0.667969 -3.046875 0.648438 -3.085938 C 0.632812 -3.121094 0.589844 -3.15625 0.519531 -3.1875 C 0.46875 -3.210938 0.410156 -3.230469 0.339844 -3.242188 C 0.265625 -3.257812 0.210938 -3.265625 0.167969 -3.273438 L 0.167969 -3.464844 L 2.070312 -3.464844 L 2.070312 -3.273438 C 2.019531 -3.269531 1.957031 -3.261719 1.886719 -3.253906 C 1.816406 -3.246094 1.753906 -3.230469 1.703125 -3.214844 C 1.636719 -3.195312 1.597656 -3.160156 1.574219 -3.117188 C 1.554688 -3.070312 1.542969 -3.019531 1.542969 -2.964844 L 1.542969 -0.6875 C 1.542969 -0.578125 1.550781 -0.492188 1.566406 -0.433594 C 1.578125 -0.371094 1.609375 -0.324219 1.648438 -0.296875 C 1.691406 -0.265625 1.75 -0.246094 1.828125 -0.234375 C 1.902344 -0.226562 2.007812 -0.222656 2.140625 -0.222656 C 2.269531 -0.222656 2.398438 -0.230469 2.519531 -0.246094 C 2.644531 -0.261719 2.730469 -0.292969 2.785156 -0.347656 C 2.867188 -0.429688 2.953125 -0.546875 3.039062 -0.695312 C 3.128906 -0.847656 3.199219 -0.984375 3.25 -1.109375 Z "/>
</g>
</g>
</defs>
<g fill="rgb(94.901961%, 75.686275%, 30.588235%)" fill-opacity="1">
<use xlink:href="#glyph-0-0" x="30" y="24.584961"/>
<use xlink:href="#glyph-0-1" x="34" y="24.584961"/>
<use xlink:href="#glyph-0-2" x="38" y="24.584961"/>
<use xlink:href="#glyph-0-3" x="42" y="24.584961"/>
<use xlink:href="#glyph-0-4" x="45" y="24.584961"/>
<use xlink:href="#glyph-0-1" x="47" y="24.584961"/>
<use xlink:href="#glyph-0-5" x="51" y="24.584961"/>
</g>
</svg>
