<?xml version="1.0" encoding="UTF-8"?>
<svg xmlns="http://www.w3.org/2000/svg" xmlns:xlink="http://www.w3.org/1999/xlink" width="854" height="480" viewBox="0 0 854 480">
<defs>
<g>
<g id="glyph-0-0">
<path d="M 3.414062 -2.597656 C 3.414062 -2.402344 3.375 -2.234375 3.292969 -2.09375 C 3.214844 -1.953125 3.101562 -1.839844 2.960938 -1.75 C 2.816406 -1.660156 2.648438 -1.59375 2.460938 -1.554688 C 2.273438 -1.511719 2.0625 -1.492188 1.828125 -1.492188 L 1.542969 -1.492188 L 1.542969 -0.515625 C 1.542969 -0.460938 1.554688 -0.40625 1.574219 -0.363281 C 1.597656 -0.320312 1.640625 -0.289062 1.703125 -0.261719 C 1.734375 -0.25 1.789062 -0.234375 1.859375 -0.21875 C 1.933594 -0.203125 1.996094 -0.195312 2.046875 -0.191406 L 2.046875 0 L 0.167969 0 L 0.167969 -0.191406 C 0.214844 -0.195312 0.277344 -0.203125 0.355469 -0.210938 C 0.433594 -0.21875 0.488281 -0.230469 0.519531 -0.242188 C 0.582031 -0.269531 0.625 -0.300781 0.644531 -0.339844 C 0.667969 -0.375 0.675781 -0.429688 0.675781 -0.496094 L 0.675781 -2.9375 C 0.675781 -2.996094 0.667969 -3.046875 0.648438 -3.085938 C 0.628906 -3.128906 0.585938 -3.164062 0.519531 -3.191406 C 0.472656 -3.210938 0.414062 -3.226562 0.339844 -3.242188 C 0.261719 -3.257812 0.207031 -3.269531 0.167969 -3.273438 L 0.167969 -3.464844 L 2.078125 -3.464844 C 2.527344 -3.464844 2.863281 -3.394531 3.082031 -3.25 C 3.304688 -3.109375 3.414062 -2.890625 3.414062 -2.597656 M 2.464844 -2.472656 C 2.464844 -2.734375 2.410156 -2.925781 2.304688 -3.054688 C 2.199219 -3.179688 2.015625 -3.242188 1.746094 -3.242188 L 1.542969 -3.242188 L 1.542969 -1.722656 L 1.644531 -1.722656 C 1.914062 -1.722656 2.117188 -1.78125 2.253906 -1.90625 C 2.394531 -2.027344 2.464844 -2.21875 2.464844 -2.472656 Z "/>
</g>
<g id="glyph-0-1">
<path d="M 3.929688 0 L 2.039062 0 L 2.039062 -0.191406 C 2.128906 -0.195312 2.230469 -0.210938 2.351562 -0.238281 C 2.46875 -0.261719 2.527344 -0.292969 2.527344 -0.332031 C 2.527344 -0.34375 2.527344 -0.359375 2.523438 -0.375 C 2.523438 -0.390625 2.515625 -0.414062 2.503906 -0.441406 L 2.207031 -1.160156 L 1.011719 -1.160156 C 0.984375 -1.09375 0.953125 -1.015625 0.921875 -0.925781 C 0.886719 -0.835938 0.859375 -0.757812 0.835938 -0.6875 C 0.804688 -0.59375 0.785156 -0.527344 0.78125 -0.488281 C 0.773438 -0.449219 0.773438 -0.417969 0.773438 -0.402344 C 0.773438 -0.351562 0.8125 -0.304688 0.890625 -0.269531 C 0.96875 -0.234375 1.101562 -0.207031 1.285156 -0.191406 L 1.285156 0 L -0.136719 0 L -0.136719 -0.191406 C -0.0820312 -0.195312 -0.0234375 -0.203125 0.046875 -0.214844 C 0.113281 -0.230469 0.164062 -0.25 0.203125 -0.273438 C 0.273438 -0.3125 0.328125 -0.359375 0.375 -0.417969 C 0.421875 -0.472656 0.460938 -0.542969 0.492188 -0.621094 C 0.679688 -1.078125 0.867188 -1.535156 1.058594 -1.996094 C 1.246094 -2.453125 1.457031 -2.960938 1.6875 -3.511719 L 2.175781 -3.511719 C 2.496094 -2.730469 2.742188 -2.109375 2.925781 -1.652344 C 3.105469 -1.195312 3.257812 -0.820312 3.386719 -0.519531 C 3.40625 -0.472656 3.433594 -0.425781 3.46875 -0.386719 C 3.5 -0.347656 3.546875 -0.308594 3.605469 -0.273438 C 3.652344 -0.246094 3.703125 -0.226562 3.765625 -0.214844 C 3.824219 -0.203125 3.878906 -0.195312 3.929688 -0.191406 L 3.929688 0 M 2.109375 -1.402344 L 1.605469 -2.652344 L 1.113281 -1.402344 Z "/>
</g>
<g id="glyph-0-2">
<path d="M 1.621094 0.09375 C 1.410156 0.09375 1.210938 0.0703125 1.027344 0.015625 C 0.847656 -0.0351562 0.691406 -0.0976562 0.5625 -0.171875 L 0.394531 0 L 0.1875 0 L 0.15625 -1.253906 L 0.367188 -1.253906 C 0.414062 -1.132812 0.472656 -1.007812 0.546875 -0.875 C 0.621094 -0.742188 0.703125 -0.625 0.800781 -0.519531 C 0.898438 -0.410156 1.011719 -0.324219 1.132812 -0.253906 C 1.257812 -0.1875 1.402344 -0.152344 1.566406 -0.152344 C 1.785156 -0.152344 1.957031 -0.207031 2.074219 -0.3125 C 2.191406 -0.421875 2.25 -0.558594 2.25 -0.722656 C 2.25 -0.859375 2.199219 -0.972656 2.101562 -1.0625 C 2 -1.15625 1.84375 -1.234375 1.636719 -1.300781 C 1.5 -1.347656 1.375 -1.386719 1.257812 -1.425781 C 1.144531 -1.460938 1.035156 -1.5 0.933594 -1.539062 C 0.703125 -1.632812 0.53125 -1.765625 0.417969 -1.9375 C 0.304688 -2.113281 0.246094 -2.304688 0.246094 -2.519531 C 0.246094 -2.652344 0.277344 -2.785156 0.335938 -2.90625 C 0.394531 -3.03125 0.476562 -3.144531 0.589844 -3.246094 C 0.699219 -3.335938 0.835938 -3.414062 1.003906 -3.472656 C 1.171875 -3.53125 1.351562 -3.558594 1.550781 -3.558594 C 1.742188 -3.558594 1.921875 -3.53125 2.089844 -3.480469 C 2.257812 -3.425781 2.390625 -3.371094 2.484375 -3.316406 L 2.632812 -3.464844 L 2.847656 -3.464844 L 2.867188 -2.28125 L 2.65625 -2.28125 C 2.609375 -2.410156 2.550781 -2.539062 2.484375 -2.671875 C 2.417969 -2.804688 2.347656 -2.917969 2.273438 -3.003906 C 2.195312 -3.097656 2.105469 -3.175781 2 -3.230469 C 1.894531 -3.289062 1.773438 -3.316406 1.632812 -3.316406 C 1.457031 -3.316406 1.3125 -3.265625 1.203125 -3.167969 C 1.089844 -3.066406 1.035156 -2.945312 1.035156 -2.796875 C 1.035156 -2.660156 1.082031 -2.546875 1.179688 -2.457031 C 1.277344 -2.367188 1.429688 -2.292969 1.632812 -2.226562 C 1.753906 -2.183594 1.875 -2.144531 2 -2.101562 C 2.128906 -2.0625 2.238281 -2.023438 2.335938 -1.984375 C 2.574219 -1.894531 2.75 -1.769531 2.875 -1.609375 C 2.996094 -1.445312 3.058594 -1.246094 3.058594 -1.011719 C 3.058594 -0.859375 3.023438 -0.714844 2.953125 -0.574219 C 2.882812 -0.433594 2.789062 -0.316406 2.671875 -0.226562 C 2.539062 -0.121094 2.390625 -0.0429688 2.21875 0.0117188 C 2.046875 0.0664062 1.847656 0.09375 1.621094 0.09375 Z "/>
</g>
</g>
</defs>
<g fill="rgb(35.686275%, 83.921569%, 54.901961%)" fill-opacity="1">
<use xlink:href="#glyph-0-0" x="30" y="24.584961"/>
<use xlink:href="#glyph-0-1" x="34" y="24.584961"/>
<use xlink:href="#glyph-0-2" x="38" y="24.584961"/>
<use xlink:href="#glyph-0-2" x="41" y="24.584961"/>
</g>
</svg>
