<?xml version="1.0" encoding="UTF-8"?>
<svg xmlns="http://www.w3.org/2000/svg" xmlns:xlink="http://www.w3.org/1999/xlink" width="854" height="480" viewBox="0 0 854 480">
<defs>
<g>
<g id="glyph-0-0">
<path d="M 4.363281 0 L 0.558594 0 L 0.558594 -0.351562 C 0.648438 -0.355469 0.796875 -0.371094 1 -0.398438 C 1.199219 -0.421875 1.335938 -0.445312 1.410156 -0.46875 C 1.503906 -0.5 1.574219 -0.554688 1.628906 -0.628906 C 1.679688 -0.699219 1.707031 -0.800781 1.707031 -0.929688 L 1.707031 -3.855469 L 0.539062 -3.855469 L 0.539062 -4.292969 L 0.792969 -4.292969 C 1.0625 -4.292969 1.292969 -4.324219 1.488281 -4.378906 C 1.683594 -4.4375 1.84375 -4.511719 1.972656 -4.59375 C 2.105469 -4.679688 2.214844 -4.769531 2.296875 -4.859375 C 2.382812 -4.953125 2.449219 -5.035156 2.5 -5.105469 L 3.3125 -5.105469 C 3.300781 -4.90625 3.292969 -4.671875 3.285156 -4.402344 C 3.273438 -4.136719 3.269531 -3.898438 3.269531 -3.683594 L 3.269531 -0.980469 C 3.269531 -0.871094 3.292969 -0.777344 3.339844 -0.695312 C 3.386719 -0.613281 3.457031 -0.550781 3.546875 -0.507812 C 3.625 -0.46875 3.761719 -0.4375 3.949219 -0.40625 C 4.136719 -0.375 4.273438 -0.355469 4.363281 -0.351562 Z "/>
</g>
<g id="glyph-0-1">
<path d="M 2.460938 -0.765625 C 2.460938 -0.523438 2.371094 -0.3125 2.191406 -0.132812 C 2.011719 0.0429688 1.800781 0.132812 1.554688 0.132812 C 1.304688 0.132812 1.089844 0.046875 0.910156 -0.132812 C 0.730469 -0.308594 0.640625 -0.519531 0.640625 -0.765625 C 0.640625 -1.011719 0.730469 -1.222656 0.910156 -1.402344 C 1.089844 -1.585938 1.304688 -1.675781 1.554688 -1.675781 C 1.800781 -1.675781 2.011719 -1.582031 2.191406 -1.402344 C 2.371094 -1.21875 2.460938 -1.007812 2.460938 -0.765625 Z "/>
</g>
<g id="glyph-0-2">
</g>
<g id="glyph-0-3">
<path d="M 7.417969 0 L 3.855469 0 L 3.855469 -0.359375 C 4.019531 -0.371094 4.214844 -0.402344 4.441406 -0.449219 C 4.664062 -0.496094 4.777344 -0.554688 4.777344 -0.628906 C 4.777344 -0.652344 4.773438 -0.679688 4.769531 -0.710938 C 4.765625 -0.742188 4.75 -0.78125 4.730469 -0.835938 L 4.171875 -2.191406 L 1.914062 -2.191406 C 1.859375 -2.0625 1.804688 -1.917969 1.742188 -1.746094 C 1.675781 -1.578125 1.625 -1.429688 1.578125 -1.296875 C 1.519531 -1.125 1.484375 -1 1.472656 -0.921875 C 1.464844 -0.84375 1.457031 -0.792969 1.457031 -0.761719 C 1.457031 -0.664062 1.53125 -0.578125 1.679688 -0.507812 C 1.832031 -0.441406 2.078125 -0.390625 2.425781 -0.359375 L 2.425781 0 L -0.257812 0 L -0.257812 -0.359375 C -0.15625 -0.367188 -0.0429688 -0.382812 0.0859375 -0.40625 C 0.210938 -0.433594 0.3125 -0.46875 0.386719 -0.515625 C 0.511719 -0.589844 0.621094 -0.679688 0.707031 -0.789062 C 0.796875 -0.894531 0.867188 -1.023438 0.925781 -1.171875 C 1.285156 -2.035156 1.640625 -2.902344 2 -3.765625 C 2.355469 -4.632812 2.753906 -5.589844 3.1875 -6.636719 L 4.109375 -6.636719 C 4.710938 -5.152344 5.183594 -3.984375 5.523438 -3.121094 C 5.867188 -2.261719 6.15625 -1.546875 6.394531 -0.980469 C 6.4375 -0.890625 6.488281 -0.804688 6.546875 -0.730469 C 6.609375 -0.65625 6.695312 -0.585938 6.8125 -0.515625 C 6.898438 -0.46875 6.996094 -0.429688 7.109375 -0.40625 C 7.222656 -0.382812 7.328125 -0.367188 7.417969 -0.359375 L 7.417969 0 M 3.980469 -2.648438 L 3.035156 -5.011719 L 2.101562 -2.648438 Z "/>
</g>
<g id="glyph-0-4">
<path d="M 4.859375 -3.730469 C 4.859375 -3.496094 4.789062 -3.292969 4.644531 -3.113281 C 4.5 -2.9375 4.308594 -2.851562 4.070312 -2.851562 C 3.847656 -2.851562 3.65625 -2.90625 3.503906 -3.019531 C 3.347656 -3.132812 3.269531 -3.300781 3.269531 -3.519531 C 3.269531 -3.628906 3.277344 -3.710938 3.292969 -3.769531 C 3.308594 -3.832031 3.320312 -3.886719 3.335938 -3.9375 C 3.191406 -3.933594 3.042969 -3.882812 2.886719 -3.792969 C 2.730469 -3.699219 2.589844 -3.578125 2.472656 -3.425781 L 2.472656 -0.894531 C 2.472656 -0.785156 2.488281 -0.699219 2.523438 -0.628906 C 2.554688 -0.554688 2.613281 -0.5 2.691406 -0.460938 C 2.761719 -0.425781 2.871094 -0.398438 3.023438 -0.375 C 3.175781 -0.351562 3.285156 -0.339844 3.351562 -0.335938 L 3.351562 0 L 0.265625 0 L 0.265625 -0.335938 C 0.34375 -0.34375 0.421875 -0.351562 0.5 -0.363281 C 0.578125 -0.371094 0.644531 -0.386719 0.699219 -0.40625 C 0.800781 -0.441406 0.867188 -0.492188 0.902344 -0.5625 C 0.941406 -0.632812 0.960938 -0.726562 0.960938 -0.839844 L 0.960938 -3.523438 C 0.960938 -3.632812 0.933594 -3.734375 0.878906 -3.820312 C 0.828125 -3.90625 0.765625 -3.976562 0.691406 -4.03125 C 0.636719 -4.066406 0.566406 -4.097656 0.480469 -4.121094 C 0.398438 -4.148438 0.304688 -4.164062 0.203125 -4.171875 L 0.203125 -4.511719 L 2.402344 -4.628906 L 2.472656 -4.5625 L 2.472656 -3.890625 L 2.488281 -3.890625 C 2.703125 -4.136719 2.925781 -4.332031 3.164062 -4.46875 C 3.402344 -4.609375 3.652344 -4.679688 3.910156 -4.679688 C 4.195312 -4.679688 4.425781 -4.59375 4.601562 -4.414062 C 4.773438 -4.238281 4.859375 -4.011719 4.859375 -3.730469 Z "/>
</g>
<g id="glyph-0-5">
<path d="M 2.902344 0.148438 C 2.472656 0.148438 2.097656 0.0859375 1.769531 -0.0390625 C 1.441406 -0.164062 1.171875 -0.332031 0.960938 -0.546875 C 0.746094 -0.765625 0.589844 -1.023438 0.484375 -1.324219 C 0.378906 -1.621094 0.328125 -1.945312 0.328125 -2.296875 C 0.328125 -2.617188 0.390625 -2.921875 0.519531 -3.210938 C 0.644531 -3.5 0.820312 -3.753906 1.039062 -3.96875 C 1.261719 -4.195312 1.539062 -4.375 1.875 -4.507812 C 2.207031 -4.640625 2.578125 -4.707031 2.980469 -4.707031 C 3.542969 -4.707031 3.992188 -4.601562 4.320312 -4.386719 C 4.648438 -4.175781 4.8125 -3.886719 4.8125 -3.523438 C 4.8125 -3.300781 4.753906 -3.125 4.640625 -2.988281 C 4.523438 -2.851562 4.320312 -2.785156 4.035156 -2.785156 C 3.804688 -2.785156 3.613281 -2.839844 3.457031 -2.953125 C 3.300781 -3.0625 3.222656 -3.207031 3.222656 -3.382812 C 3.222656 -3.535156 3.246094 -3.683594 3.296875 -3.832031 C 3.347656 -3.980469 3.375 -4.089844 3.382812 -4.167969 C 3.351562 -4.222656 3.308594 -4.265625 3.253906 -4.296875 C 3.203125 -4.324219 3.121094 -4.339844 3.011719 -4.339844 C 2.871094 -4.339844 2.746094 -4.308594 2.632812 -4.242188 C 2.519531 -4.179688 2.414062 -4.0625 2.316406 -3.902344 C 2.21875 -3.746094 2.144531 -3.542969 2.085938 -3.285156 C 2.03125 -3.023438 2 -2.714844 2 -2.351562 C 2 -1.804688 2.128906 -1.363281 2.386719 -1.027344 C 2.644531 -0.691406 2.949219 -0.527344 3.304688 -0.527344 C 3.648438 -0.527344 3.917969 -0.601562 4.121094 -0.753906 C 4.320312 -0.90625 4.5 -1.121094 4.65625 -1.402344 L 5.003906 -1.160156 C 4.90625 -0.972656 4.792969 -0.804688 4.660156 -0.648438 C 4.53125 -0.492188 4.371094 -0.355469 4.1875 -0.234375 C 3.992188 -0.109375 3.796875 -0.015625 3.597656 0.0507812 C 3.398438 0.117188 3.164062 0.148438 2.902344 0.148438 Z "/>
</g>
<g id="glyph-0-6">
<path d="M 6.261719 0 L 3.492188 0 L 3.492188 -0.335938 C 3.550781 -0.34375 3.625 -0.351562 3.707031 -0.359375 C 3.789062 -0.367188 3.851562 -0.382812 3.890625 -0.40625 C 3.957031 -0.441406 4 -0.488281 4.027344 -0.554688 C 4.054688 -0.617188 4.066406 -0.714844 4.066406 -0.839844 L 4.066406 -2.996094 C 4.066406 -3.3125 4.007812 -3.550781 3.890625 -3.707031 C 3.769531 -3.863281 3.601562 -3.941406 3.382812 -3.941406 C 3.261719 -3.941406 3.148438 -3.925781 3.042969 -3.886719 C 2.933594 -3.851562 2.832031 -3.796875 2.730469 -3.726562 C 2.640625 -3.664062 2.570312 -3.601562 2.515625 -3.535156 C 2.460938 -3.472656 2.417969 -3.414062 2.378906 -3.367188 L 2.378906 -0.890625 C 2.378906 -0.777344 2.394531 -0.6875 2.421875 -0.621094 C 2.449219 -0.554688 2.5 -0.5 2.578125 -0.457031 C 2.625 -0.429688 2.683594 -0.402344 2.761719 -0.382812 C 2.835938 -0.359375 2.910156 -0.347656 2.980469 -0.335938 L 2.980469 0 L 0.164062 0 L 0.164062 -0.335938 C 0.246094 -0.34375 0.324219 -0.351562 0.402344 -0.359375 C 0.476562 -0.367188 0.542969 -0.382812 0.601562 -0.40625 C 0.703125 -0.441406 0.769531 -0.496094 0.804688 -0.566406 C 0.839844 -0.632812 0.859375 -0.726562 0.859375 -0.839844 L 0.859375 -5.980469 C 0.859375 -6.078125 0.835938 -6.183594 0.789062 -6.292969 C 0.742188 -6.40625 0.679688 -6.488281 0.59375 -6.542969 C 0.535156 -6.582031 0.445312 -6.613281 0.328125 -6.636719 C 0.210938 -6.660156 0.105469 -6.675781 0.015625 -6.683594 L 0.015625 -7.019531 L 2.308594 -7.136719 L 2.378906 -7.066406 L 2.378906 -3.890625 L 2.398438 -3.890625 C 2.515625 -3.996094 2.621094 -4.089844 2.714844 -4.175781 C 2.808594 -4.261719 2.921875 -4.34375 3.054688 -4.429688 C 3.171875 -4.503906 3.316406 -4.566406 3.5 -4.621094 C 3.683594 -4.671875 3.878906 -4.699219 4.09375 -4.699219 C 4.589844 -4.699219 4.964844 -4.554688 5.214844 -4.269531 C 5.464844 -3.984375 5.589844 -3.609375 5.589844 -3.140625 L 5.589844 -0.878906 C 5.589844 -0.765625 5.605469 -0.675781 5.640625 -0.609375 C 5.671875 -0.542969 5.738281 -0.488281 5.828125 -0.449219 C 5.882812 -0.421875 5.945312 -0.402344 6.011719 -0.382812 C 6.082031 -0.363281 6.164062 -0.347656 6.261719 -0.335938 Z "/>
</g>
<g id="glyph-0-7">
<path d="M 3.183594 0 L 0.265625 0 L 0.265625 -0.335938 C 0.347656 -0.34375 0.425781 -0.351562 0.503906 -0.359375 C 0.578125 -0.367188 0.644531 -0.382812 0.699219 -0.40625 C 0.800781 -0.441406 0.867188 -0.496094 0.910156 -0.566406 C 0.949219 -0.632812 0.96875 -0.726562 0.96875 -0.839844 L 0.96875 -3.523438 C 0.96875 -3.628906 0.945312 -3.726562 0.894531 -3.808594 C 0.84375 -3.886719 0.785156 -3.953125 0.710938 -4.003906 C 0.65625 -4.039062 0.570312 -4.074219 0.457031 -4.109375 C 0.347656 -4.140625 0.246094 -4.164062 0.152344 -4.171875 L 0.152344 -4.511719 L 2.410156 -4.628906 L 2.480469 -4.5625 L 2.480469 -0.898438 C 2.480469 -0.792969 2.503906 -0.699219 2.550781 -0.625 C 2.597656 -0.550781 2.664062 -0.492188 2.75 -0.457031 C 2.808594 -0.429688 2.878906 -0.402344 2.953125 -0.382812 C 3.023438 -0.359375 3.101562 -0.347656 3.183594 -0.335938 L 3.183594 0 M 2.507812 -6.289062 C 2.507812 -6.054688 2.417969 -5.855469 2.238281 -5.691406 C 2.058594 -5.527344 1.847656 -5.445312 1.601562 -5.445312 C 1.351562 -5.445312 1.136719 -5.527344 0.957031 -5.691406 C 0.777344 -5.855469 0.6875 -6.054688 0.6875 -6.289062 C 0.6875 -6.523438 0.777344 -6.722656 0.957031 -6.890625 C 1.136719 -7.054688 1.351562 -7.136719 1.601562 -7.136719 C 1.847656 -7.136719 2.0625 -7.054688 2.242188 -6.890625 C 2.417969 -6.722656 2.507812 -6.523438 2.507812 -6.289062 Z "/>
</g>
<g id="glyph-0-8">
<path d="M 3.699219 -0.210938 C 3.5 -0.125 3.289062 -0.046875 3.066406 0.0195312 C 2.84375 0.0898438 2.570312 0.125 2.246094 0.125 C 1.765625 0.125 1.410156 0.0078125 1.179688 -0.226562 C 0.945312 -0.457031 0.828125 -0.792969 0.828125 -1.226562 L 0.828125 -4.054688 L 0 -4.054688 L 0 -4.554688 L 0.847656 -4.554688 L 0.847656 -5.953125 L 2.34375 -5.953125 L 2.34375 -4.554688 L 3.636719 -4.554688 L 3.636719 -4.054688 L 2.351562 -4.054688 L 2.351562 -1.53125 C 2.351562 -1.171875 2.402344 -0.914062 2.503906 -0.765625 C 2.601562 -0.613281 2.78125 -0.539062 3.042969 -0.539062 C 3.125 -0.539062 3.238281 -0.546875 3.386719 -0.558594 C 3.535156 -0.570312 3.640625 -0.585938 3.699219 -0.597656 Z "/>
</g>
<g id="glyph-0-9">
<path d="M 5.226562 -1.101562 C 5.117188 -0.925781 4.988281 -0.761719 4.835938 -0.605469 C 4.683594 -0.449219 4.511719 -0.316406 4.316406 -0.207031 C 4.109375 -0.0898438 3.902344 -0.00390625 3.691406 0.0585938 C 3.480469 0.117188 3.238281 0.148438 2.964844 0.148438 C 2.511719 0.148438 2.117188 0.0820312 1.785156 -0.046875 C 1.457031 -0.175781 1.183594 -0.347656 0.96875 -0.566406 C 0.753906 -0.785156 0.59375 -1.042969 0.488281 -1.339844 C 0.378906 -1.636719 0.328125 -1.957031 0.328125 -2.304688 C 0.328125 -2.621094 0.386719 -2.917969 0.5 -3.207031 C 0.617188 -3.496094 0.78125 -3.75 0.992188 -3.976562 C 1.199219 -4.191406 1.464844 -4.371094 1.78125 -4.503906 C 2.101562 -4.640625 2.457031 -4.707031 2.851562 -4.707031 C 3.28125 -4.707031 3.632812 -4.65625 3.910156 -4.550781 C 4.1875 -4.445312 4.417969 -4.300781 4.597656 -4.117188 C 4.773438 -3.941406 4.898438 -3.734375 4.980469 -3.496094 C 5.058594 -3.257812 5.101562 -3.007812 5.101562 -2.75 L 5.101562 -2.449219 L 1.984375 -2.449219 C 1.984375 -1.820312 2.105469 -1.339844 2.347656 -1.011719 C 2.589844 -0.679688 2.976562 -0.515625 3.503906 -0.515625 C 3.792969 -0.515625 4.054688 -0.59375 4.285156 -0.753906 C 4.515625 -0.914062 4.710938 -1.113281 4.875 -1.355469 L 5.226562 -1.101562 M 3.464844 -2.855469 C 3.464844 -3.039062 3.453125 -3.226562 3.433594 -3.421875 C 3.417969 -3.617188 3.382812 -3.773438 3.339844 -3.898438 C 3.285156 -4.042969 3.214844 -4.148438 3.125 -4.222656 C 3.035156 -4.296875 2.917969 -4.335938 2.78125 -4.335938 C 2.542969 -4.335938 2.355469 -4.214844 2.214844 -3.976562 C 2.070312 -3.734375 1.996094 -3.355469 1.984375 -2.835938 Z "/>
</g>
<g id="glyph-0-10">
<path d="M 6.28125 -0.0976562 L 4.082031 0.0351562 L 4.011719 -0.0273438 L 4.011719 -0.632812 L 3.984375 -0.632812 C 3.878906 -0.535156 3.777344 -0.445312 3.679688 -0.351562 C 3.578125 -0.261719 3.460938 -0.179688 3.320312 -0.105469 C 3.164062 -0.0234375 3.015625 0.0390625 2.875 0.078125 C 2.738281 0.117188 2.535156 0.136719 2.265625 0.136719 C 1.804688 0.136719 1.449219 0 1.199219 -0.28125 C 0.953125 -0.5625 0.828125 -0.957031 0.828125 -1.464844 L 0.828125 -3.542969 C 0.828125 -3.660156 0.808594 -3.757812 0.761719 -3.835938 C 0.714844 -3.910156 0.65625 -3.976562 0.578125 -4.035156 C 0.515625 -4.082031 0.4375 -4.113281 0.339844 -4.132812 C 0.242188 -4.152344 0.152344 -4.167969 0.0742188 -4.171875 L 0.0742188 -4.511719 L 2.300781 -4.628906 L 2.351562 -4.5625 L 2.351562 -1.492188 C 2.351562 -1.175781 2.414062 -0.945312 2.535156 -0.792969 C 2.65625 -0.640625 2.820312 -0.566406 3.035156 -0.566406 C 3.253906 -0.566406 3.449219 -0.625 3.621094 -0.738281 C 3.796875 -0.851562 3.921875 -0.972656 4.003906 -1.101562 L 4.003906 -3.585938 C 4.003906 -3.691406 3.984375 -3.785156 3.941406 -3.867188 C 3.902344 -3.953125 3.84375 -4.019531 3.765625 -4.070312 C 3.710938 -4.109375 3.632812 -4.132812 3.53125 -4.144531 C 3.425781 -4.15625 3.320312 -4.167969 3.214844 -4.171875 L 3.214844 -4.511719 L 5.453125 -4.628906 L 5.523438 -4.5625 L 5.523438 -1 C 5.523438 -0.894531 5.546875 -0.800781 5.589844 -0.726562 C 5.632812 -0.652344 5.695312 -0.585938 5.777344 -0.535156 C 5.835938 -0.496094 5.910156 -0.472656 6.003906 -0.457031 C 6.097656 -0.445312 6.1875 -0.4375 6.28125 -0.433594 Z "/>
</g>
</g>
</defs>
<g fill="rgb(91.764706%, 95.686275%, 100%)" fill-opacity="1">
<use xlink:href="#glyph-0-0" x="30" y="28.65918"/>
<use xlink:href="#glyph-0-1" x="35" y="28.65918"/>
<use xlink:href="#glyph-0-2" x="38" y="28.65918"/>
<use xlink:href="#glyph-0-3" x="40" y="28.65918"/>
<use xlink:href="#glyph-0-4" x="47" y="28.65918"/>
<use xlink:href="#glyph-0-5" x="52" y="28.65918"/>
<use xlink:href="#glyph-0-6" x="57" y="28.65918"/>
<use xlink:href="#glyph-0-7" x="63" y="28.65918"/>
<use xlink:href="#glyph-0-8" x="66" y="28.65918"/>
<use xlink:href="#glyph-0-9" x="70" y="28.65918"/>
<use xlink:href="#glyph-0-5" x="75" y="28.65918"/>
<use xlink:href="#glyph-0-8" x="80" y="28.65918"/>
<use xlink:href="#glyph-0-10" x="84" y="28.65918"/>
<use xlink:href="#glyph-0-4" x="90" y="28.65918"/>
<use xlink:href="#glyph-0-9" x="95" y="28.65918"/>
</g>
</svg>
