<?xml version="1.0" encoding="UTF-8"?>
<svg xmlns="http://www.w3.org/2000/svg" xmlns:xlink="http://www.w3.org/1999/xlink" width="854" height="480" viewBox="0 0 854 480">
<defs>
<g>
<g id="glyph-0-0">
<path d="M 5.507812 0 L 0.507812 0 L 0.507812 -0.835938 C 0.726562 -1.054688 0.964844 -1.257812 1.226562 -1.441406 C 1.484375 -1.625 1.75 -1.785156 2.015625 -1.925781 C 2.304688 -2.078125 2.542969 -2.210938 2.738281 -2.332031 C 2.933594 -2.449219 3.085938 -2.574219 3.195312 -2.703125 C 3.304688 -2.820312 3.386719 -2.953125 3.433594 -3.09375 C 3.480469 -3.234375 3.503906 -3.394531 3.503906 -3.570312 C 3.503906 -3.960938 3.414062 -4.242188 3.226562 -4.421875 C 3.042969 -4.601562 2.796875 -4.691406 2.492188 -4.691406 C 2.394531 -4.691406 2.304688 -4.683594 2.222656 -4.667969 C 2.136719 -4.65625 2.046875 -4.628906 1.957031 -4.59375 C 2 -4.453125 2.046875 -4.3125 2.089844 -4.164062 C 2.132812 -4.015625 2.152344 -3.851562 2.152344 -3.671875 C 2.152344 -3.453125 2.074219 -3.277344 1.917969 -3.148438 C 1.761719 -3.019531 1.5625 -2.957031 1.320312 -2.957031 C 1.089844 -2.957031 0.90625 -3.03125 0.769531 -3.183594 C 0.632812 -3.332031 0.5625 -3.515625 0.5625 -3.730469 C 0.5625 -4.105469 0.78125 -4.429688 1.21875 -4.703125 C 1.652344 -4.976562 2.1875 -5.113281 2.8125 -5.113281 C 3.539062 -5.113281 4.125 -4.988281 4.570312 -4.742188 C 5.019531 -4.492188 5.242188 -4.089844 5.242188 -3.535156 C 5.242188 -3.25 5.183594 -3.019531 5.066406 -2.84375 C 4.945312 -2.671875 4.773438 -2.515625 4.542969 -2.382812 C 4.335938 -2.265625 4.109375 -2.164062 3.855469 -2.089844 C 3.605469 -2.011719 3.339844 -1.9375 3.050781 -1.867188 C 2.75 -1.789062 2.484375 -1.710938 2.257812 -1.625 C 2.03125 -1.539062 1.832031 -1.433594 1.65625 -1.3125 L 1.65625 -1.261719 L 5.507812 -1.261719 Z "/>
</g>
<g id="glyph-0-1">
<path d="M 2.460938 -0.765625 C 2.460938 -0.523438 2.371094 -0.3125 2.191406 -0.132812 C 2.011719 0.0429688 1.800781 0.132812 1.554688 0.132812 C 1.304688 0.132812 1.089844 0.046875 0.910156 -0.132812 C 0.730469 -0.308594 0.640625 -0.519531 0.640625 -0.765625 C 0.640625 -1.011719 0.730469 -1.222656 0.910156 -1.402344 C 1.089844 -1.585938 1.304688 -1.675781 1.554688 -1.675781 C 1.800781 -1.675781 2.011719 -1.582031 2.191406 -1.402344 C 2.371094 -1.21875 2.460938 -1.007812 2.460938 -0.765625 Z "/>
</g>
<g id="glyph-0-2">
</g>
<g id="glyph-0-3">
<path d="M 7.828125 0 L 5.320312 0 C 4.886719 -0.664062 4.527344 -1.191406 4.238281 -1.585938 C 3.953125 -1.980469 3.59375 -2.433594 3.167969 -2.953125 L 2.914062 -2.953125 L 2.914062 -0.964844 C 2.914062 -0.851562 2.933594 -0.757812 2.976562 -0.683594 C 3.019531 -0.605469 3.097656 -0.542969 3.214844 -0.488281 C 3.273438 -0.464844 3.363281 -0.4375 3.488281 -0.414062 C 3.613281 -0.386719 3.71875 -0.367188 3.808594 -0.359375 L 3.808594 0 L 0.316406 0 L 0.316406 -0.359375 C 0.40625 -0.367188 0.523438 -0.382812 0.671875 -0.398438 C 0.816406 -0.414062 0.921875 -0.4375 0.980469 -0.460938 C 1.097656 -0.511719 1.175781 -0.574219 1.21875 -0.648438 C 1.257812 -0.722656 1.277344 -0.820312 1.277344 -0.9375 L 1.277344 -5.550781 C 1.277344 -5.664062 1.261719 -5.753906 1.226562 -5.828125 C 1.191406 -5.902344 1.113281 -5.96875 0.980469 -6.023438 C 0.882812 -6.0625 0.769531 -6.097656 0.632812 -6.125 C 0.5 -6.152344 0.394531 -6.171875 0.316406 -6.183594 L 0.316406 -6.542969 L 3.988281 -6.542969 C 4.808594 -6.542969 5.433594 -6.414062 5.859375 -6.160156 C 6.285156 -5.902344 6.496094 -5.511719 6.496094 -4.992188 C 6.496094 -4.535156 6.367188 -4.167969 6.101562 -3.890625 C 5.839844 -3.613281 5.441406 -3.394531 4.902344 -3.238281 C 5.109375 -2.964844 5.355469 -2.652344 5.632812 -2.296875 C 5.910156 -1.941406 6.199219 -1.574219 6.503906 -1.203125 C 6.597656 -1.082031 6.726562 -0.9375 6.890625 -0.761719 C 7.054688 -0.589844 7.203125 -0.484375 7.328125 -0.441406 C 7.398438 -0.421875 7.488281 -0.402344 7.597656 -0.386719 C 7.707031 -0.371094 7.785156 -0.363281 7.828125 -0.359375 L 7.828125 0 M 4.691406 -4.863281 C 4.691406 -5.300781 4.566406 -5.621094 4.324219 -5.820312 C 4.078125 -6.023438 3.730469 -6.125 3.277344 -6.125 L 2.914062 -6.125 L 2.914062 -3.382812 L 3.265625 -3.382812 C 3.714844 -3.382812 4.066406 -3.503906 4.316406 -3.738281 C 4.566406 -3.976562 4.691406 -4.351562 4.691406 -4.863281 Z "/>
</g>
<g id="glyph-0-4">
<path d="M 5.226562 -1.101562 C 5.117188 -0.925781 4.988281 -0.761719 4.835938 -0.605469 C 4.683594 -0.449219 4.511719 -0.316406 4.316406 -0.207031 C 4.109375 -0.0898438 3.902344 -0.00390625 3.691406 0.0585938 C 3.480469 0.117188 3.238281 0.148438 2.964844 0.148438 C 2.511719 0.148438 2.117188 0.0820312 1.785156 -0.046875 C 1.457031 -0.175781 1.183594 -0.347656 0.96875 -0.566406 C 0.753906 -0.785156 0.59375 -1.042969 0.488281 -1.339844 C 0.378906 -1.636719 0.328125 -1.957031 0.328125 -2.304688 C 0.328125 -2.621094 0.386719 -2.917969 0.5 -3.207031 C 0.617188 -3.496094 0.78125 -3.75 0.992188 -3.976562 C 1.199219 -4.191406 1.464844 -4.371094 1.78125 -4.503906 C 2.101562 -4.640625 2.457031 -4.707031 2.851562 -4.707031 C 3.28125 -4.707031 3.632812 -4.65625 3.910156 -4.550781 C 4.1875 -4.445312 4.417969 -4.300781 4.597656 -4.117188 C 4.773438 -3.941406 4.898438 -3.734375 4.980469 -3.496094 C 5.058594 -3.257812 5.101562 -3.007812 5.101562 -2.75 L 5.101562 -2.449219 L 1.984375 -2.449219 C 1.984375 -1.820312 2.105469 -1.339844 2.347656 -1.011719 C 2.589844 -0.679688 2.976562 -0.515625 3.503906 -0.515625 C 3.792969 -0.515625 4.054688 -0.59375 4.285156 -0.753906 C 4.515625 -0.914062 4.710938 -1.113281 4.875 -1.355469 L 5.226562 -1.101562 M 3.464844 -2.855469 C 3.464844 -3.039062 3.453125 -3.226562 3.433594 -3.421875 C 3.417969 -3.617188 3.382812 -3.773438 3.339844 -3.898438 C 3.285156 -4.042969 3.214844 -4.148438 3.125 -4.222656 C 3.035156 -4.296875 2.917969 -4.335938 2.78125 -4.335938 C 2.542969 -4.335938 2.355469 -4.214844 2.214844 -3.976562 C 2.070312 -3.734375 1.996094 -3.355469 1.984375 -2.835938 Z "/>
</g>
<g id="glyph-0-5">
<path d="M 6.25 2.046875 L 3.015625 2.046875 L 3.015625 1.707031 C 3.101562 1.699219 3.207031 1.691406 3.328125 1.675781 C 3.449219 1.664062 3.542969 1.644531 3.609375 1.617188 C 3.707031 1.585938 3.773438 1.53125 3.8125 1.453125 C 3.855469 1.371094 3.875 1.277344 3.875 1.167969 L 3.875 -0.441406 L 3.835938 -0.453125 C 3.785156 -0.402344 3.714844 -0.34375 3.632812 -0.273438 C 3.546875 -0.203125 3.445312 -0.136719 3.324219 -0.0820312 C 3.195312 -0.0195312 3.066406 0.03125 2.945312 0.0664062 C 2.824219 0.101562 2.664062 0.121094 2.464844 0.121094 C 1.824219 0.121094 1.308594 -0.101562 0.917969 -0.542969 C 0.523438 -0.988281 0.328125 -1.582031 0.328125 -2.332031 C 0.328125 -3.011719 0.5625 -3.578125 1.03125 -4.027344 C 1.503906 -4.472656 2.097656 -4.699219 2.816406 -4.699219 C 3.179688 -4.699219 3.507812 -4.660156 3.796875 -4.578125 C 4.089844 -4.496094 4.363281 -4.386719 4.613281 -4.257812 L 5.214844 -4.847656 L 5.46875 -4.785156 C 5.460938 -4.59375 5.445312 -4.339844 5.425781 -4.027344 C 5.40625 -3.714844 5.394531 -3.457031 5.394531 -3.25 L 5.394531 1.089844 C 5.394531 1.203125 5.414062 1.300781 5.457031 1.382812 C 5.5 1.460938 5.566406 1.523438 5.65625 1.5625 C 5.726562 1.59375 5.816406 1.625 5.933594 1.652344 C 6.050781 1.679688 6.15625 1.695312 6.25 1.707031 L 6.25 2.046875 M 3.875 -0.917969 L 3.875 -3.523438 C 3.851562 -3.601562 3.820312 -3.683594 3.785156 -3.773438 C 3.746094 -3.859375 3.691406 -3.949219 3.621094 -4.03125 C 3.554688 -4.105469 3.46875 -4.171875 3.371094 -4.21875 C 3.269531 -4.269531 3.148438 -4.292969 3.007812 -4.292969 C 2.703125 -4.292969 2.453125 -4.113281 2.265625 -3.753906 C 2.078125 -3.394531 1.984375 -2.898438 1.984375 -2.265625 C 1.984375 -2.007812 2.003906 -1.777344 2.042969 -1.578125 C 2.082031 -1.382812 2.140625 -1.207031 2.222656 -1.0625 C 2.3125 -0.898438 2.425781 -0.773438 2.554688 -0.683594 C 2.683594 -0.59375 2.855469 -0.546875 3.070312 -0.546875 C 3.265625 -0.546875 3.425781 -0.582031 3.546875 -0.648438 C 3.667969 -0.714844 3.777344 -0.804688 3.875 -0.917969 Z "/>
</g>
<g id="glyph-0-6">
<path d="M 6.28125 -0.0976562 L 4.082031 0.0351562 L 4.011719 -0.0273438 L 4.011719 -0.632812 L 3.984375 -0.632812 C 3.878906 -0.535156 3.777344 -0.445312 3.679688 -0.351562 C 3.578125 -0.261719 3.460938 -0.179688 3.320312 -0.105469 C 3.164062 -0.0234375 3.015625 0.0390625 2.875 0.078125 C 2.738281 0.117188 2.535156 0.136719 2.265625 0.136719 C 1.804688 0.136719 1.449219 0 1.199219 -0.28125 C 0.953125 -0.5625 0.828125 -0.957031 0.828125 -1.464844 L 0.828125 -3.542969 C 0.828125 -3.660156 0.808594 -3.757812 0.761719 -3.835938 C 0.714844 -3.910156 0.65625 -3.976562 0.578125 -4.035156 C 0.515625 -4.082031 0.4375 -4.113281 0.339844 -4.132812 C 0.242188 -4.152344 0.152344 -4.167969 0.0742188 -4.171875 L 0.0742188 -4.511719 L 2.300781 -4.628906 L 2.351562 -4.5625 L 2.351562 -1.492188 C 2.351562 -1.175781 2.414062 -0.945312 2.535156 -0.792969 C 2.65625 -0.640625 2.820312 -0.566406 3.035156 -0.566406 C 3.253906 -0.566406 3.449219 -0.625 3.621094 -0.738281 C 3.796875 -0.851562 3.921875 -0.972656 4.003906 -1.101562 L 4.003906 -3.585938 C 4.003906 -3.691406 3.984375 -3.785156 3.941406 -3.867188 C 3.902344 -3.953125 3.84375 -4.019531 3.765625 -4.070312 C 3.710938 -4.109375 3.632812 -4.132812 3.53125 -4.144531 C 3.425781 -4.15625 3.320312 -4.167969 3.214844 -4.171875 L 3.214844 -4.511719 L 5.453125 -4.628906 L 5.523438 -4.5625 L 5.523438 -1 C 5.523438 -0.894531 5.546875 -0.800781 5.589844 -0.726562 C 5.632812 -0.652344 5.695312 -0.585938 5.777344 -0.535156 C 5.835938 -0.496094 5.910156 -0.472656 6.003906 -0.457031 C 6.097656 -0.445312 6.1875 -0.4375 6.28125 -0.433594 Z "/>
</g>
<g id="glyph-0-7">
<path d="M 2.402344 0.15625 C 2.105469 0.15625 1.8125 0.113281 1.527344 0.0234375 C 1.246094 -0.0625 1.023438 -0.15625 0.867188 -0.253906 L 0.730469 0.0585938 L 0.367188 0.0585938 L 0.308594 -1.660156 L 0.644531 -1.660156 C 0.691406 -1.523438 0.769531 -1.367188 0.875 -1.191406 C 0.984375 -1.019531 1.105469 -0.863281 1.246094 -0.722656 C 1.390625 -0.585938 1.554688 -0.46875 1.742188 -0.375 C 1.925781 -0.277344 2.125 -0.230469 2.339844 -0.230469 C 2.617188 -0.230469 2.824219 -0.285156 2.960938 -0.394531 C 3.097656 -0.503906 3.167969 -0.671875 3.167969 -0.898438 C 3.167969 -1.023438 3.136719 -1.125 3.074219 -1.203125 C 3.015625 -1.285156 2.929688 -1.351562 2.820312 -1.410156 C 2.703125 -1.472656 2.570312 -1.523438 2.429688 -1.566406 C 2.285156 -1.609375 2.109375 -1.664062 1.898438 -1.726562 C 1.691406 -1.785156 1.511719 -1.847656 1.363281 -1.910156 C 1.214844 -1.972656 1.058594 -2.074219 0.898438 -2.207031 C 0.761719 -2.328125 0.648438 -2.472656 0.566406 -2.640625 C 0.484375 -2.8125 0.441406 -3.011719 0.441406 -3.246094 C 0.441406 -3.679688 0.625 -4.03125 0.988281 -4.296875 C 1.351562 -4.566406 1.832031 -4.699219 2.421875 -4.699219 C 2.699219 -4.699219 2.957031 -4.671875 3.191406 -4.613281 C 3.429688 -4.558594 3.625 -4.496094 3.785156 -4.425781 L 3.882812 -4.699219 L 4.234375 -4.699219 L 4.308594 -3.125 L 3.984375 -3.125 C 3.875 -3.445312 3.691406 -3.722656 3.429688 -3.953125 C 3.167969 -4.1875 2.886719 -4.300781 2.585938 -4.300781 C 2.351562 -4.300781 2.164062 -4.253906 2.027344 -4.15625 C 1.894531 -4.054688 1.824219 -3.917969 1.824219 -3.746094 C 1.824219 -3.511719 1.925781 -3.339844 2.121094 -3.238281 C 2.320312 -3.132812 2.597656 -3.035156 2.953125 -2.941406 C 3.503906 -2.800781 3.90625 -2.609375 4.160156 -2.363281 C 4.414062 -2.117188 4.542969 -1.808594 4.542969 -1.429688 C 4.542969 -0.925781 4.34375 -0.535156 3.949219 -0.257812 C 3.554688 0.0195312 3.039062 0.15625 2.402344 0.15625 Z "/>
</g>
<g id="glyph-0-8">
<path d="M 3.699219 -0.210938 C 3.5 -0.125 3.289062 -0.046875 3.066406 0.0195312 C 2.84375 0.0898438 2.570312 0.125 2.246094 0.125 C 1.765625 0.125 1.410156 0.0078125 1.179688 -0.226562 C 0.945312 -0.457031 0.828125 -0.792969 0.828125 -1.226562 L 0.828125 -4.054688 L 0 -4.054688 L 0 -4.554688 L 0.847656 -4.554688 L 0.847656 -5.953125 L 2.34375 -5.953125 L 2.34375 -4.554688 L 3.636719 -4.554688 L 3.636719 -4.054688 L 2.351562 -4.054688 L 2.351562 -1.53125 C 2.351562 -1.171875 2.402344 -0.914062 2.503906 -0.765625 C 2.601562 -0.613281 2.78125 -0.539062 3.042969 -0.539062 C 3.125 -0.539062 3.238281 -0.546875 3.386719 -0.558594 C 3.535156 -0.570312 3.640625 -0.585938 3.699219 -0.597656 Z "/>
</g>
<g id="glyph-0-9">
<path d="M 6.472656 -2.097656 L 6.34375 0 L 0.316406 0 L 0.316406 -0.359375 C 0.425781 -0.367188 0.550781 -0.382812 0.695312 -0.402344 C 0.839844 -0.421875 0.9375 -0.441406 0.980469 -0.460938 C 1.09375 -0.503906 1.167969 -0.5625 1.210938 -0.640625 C 1.253906 -0.71875 1.277344 -0.816406 1.277344 -0.9375 L 1.277344 -5.550781 C 1.277344 -5.664062 1.261719 -5.753906 1.226562 -5.828125 C 1.191406 -5.898438 1.113281 -5.964844 0.980469 -6.023438 C 0.886719 -6.066406 0.773438 -6.101562 0.636719 -6.125 C 0.503906 -6.152344 0.398438 -6.171875 0.316406 -6.183594 L 0.316406 -6.542969 L 3.910156 -6.542969 L 3.910156 -6.183594 C 3.8125 -6.175781 3.695312 -6.160156 3.5625 -6.144531 C 3.429688 -6.128906 3.3125 -6.105469 3.214844 -6.074219 C 3.09375 -6.03125 3.015625 -5.972656 2.972656 -5.886719 C 2.933594 -5.800781 2.914062 -5.707031 2.914062 -5.597656 L 2.914062 -1.296875 C 2.914062 -1.09375 2.929688 -0.933594 2.957031 -0.816406 C 2.984375 -0.699219 3.039062 -0.613281 3.117188 -0.558594 C 3.195312 -0.5 3.308594 -0.460938 3.453125 -0.445312 C 3.59375 -0.429688 3.792969 -0.417969 4.042969 -0.417969 C 4.289062 -0.417969 4.527344 -0.433594 4.761719 -0.464844 C 4.992188 -0.492188 5.160156 -0.554688 5.261719 -0.65625 C 5.417969 -0.8125 5.578125 -1.03125 5.742188 -1.316406 C 5.90625 -1.601562 6.039062 -1.863281 6.136719 -2.097656 Z "/>
</g>
<g id="glyph-0-10">
<path d="M 3.183594 0 L 0.265625 0 L 0.265625 -0.335938 C 0.347656 -0.34375 0.425781 -0.351562 0.503906 -0.359375 C 0.578125 -0.367188 0.644531 -0.382812 0.699219 -0.40625 C 0.800781 -0.441406 0.867188 -0.496094 0.910156 -0.566406 C 0.949219 -0.632812 0.96875 -0.726562 0.96875 -0.839844 L 0.96875 -3.523438 C 0.96875 -3.628906 0.945312 -3.726562 0.894531 -3.808594 C 0.84375 -3.886719 0.785156 -3.953125 0.710938 -4.003906 C 0.65625 -4.039062 0.570312 -4.074219 0.457031 -4.109375 C 0.347656 -4.140625 0.246094 -4.164062 0.152344 -4.171875 L 0.152344 -4.511719 L 2.410156 -4.628906 L 2.480469 -4.5625 L 2.480469 -0.898438 C 2.480469 -0.792969 2.503906 -0.699219 2.550781 -0.625 C 2.597656 -0.550781 2.664062 -0.492188 2.75 -0.457031 C 2.808594 -0.429688 2.878906 -0.402344 2.953125 -0.382812 C 3.023438 -0.359375 3.101562 -0.347656 3.183594 -0.335938 L 3.183594 0 M 2.507812 -6.289062 C 2.507812 -6.054688 2.417969 -5.855469 2.238281 -5.691406 C 2.058594 -5.527344 1.847656 -5.445312 1.601562 -5.445312 C 1.351562 -5.445312 1.136719 -5.527344 0.957031 -5.691406 C 0.777344 -5.855469 0.6875 -6.054688 0.6875 -6.289062 C 0.6875 -6.523438 0.777344 -6.722656 0.957031 -6.890625 C 1.136719 -7.054688 1.351562 -7.136719 1.601562 -7.136719 C 1.847656 -7.136719 2.0625 -7.054688 2.242188 -6.890625 C 2.417969 -6.722656 2.507812 -6.523438 2.507812 -6.289062 Z "/>
</g>
<g id="glyph-0-11">
<path d="M 4.628906 -6.355469 C 4.628906 -6.277344 4.617188 -6.191406 4.59375 -6.101562 C 4.566406 -6.007812 4.527344 -5.929688 4.472656 -5.867188 C 4.410156 -5.789062 4.335938 -5.730469 4.257812 -5.691406 C 4.175781 -5.652344 4.054688 -5.628906 3.898438 -5.628906 C 3.652344 -5.628906 3.464844 -5.714844 3.324219 -5.882812 C 3.1875 -6.054688 3.039062 -6.335938 2.882812 -6.726562 C 2.757812 -6.675781 2.660156 -6.539062 2.582031 -6.324219 C 2.503906 -6.105469 2.46875 -5.636719 2.46875 -4.917969 L 2.46875 -4.554688 L 3.738281 -4.554688 L 3.738281 -4.054688 L 2.476562 -4.054688 L 2.476562 -0.878906 C 2.476562 -0.761719 2.503906 -0.667969 2.558594 -0.601562 C 2.613281 -0.535156 2.6875 -0.488281 2.777344 -0.457031 C 2.851562 -0.433594 2.945312 -0.40625 3.066406 -0.386719 C 3.1875 -0.363281 3.292969 -0.347656 3.390625 -0.335938 L 3.390625 0 L 0.273438 0 L 0.273438 -0.335938 C 0.351562 -0.34375 0.429688 -0.351562 0.507812 -0.359375 C 0.582031 -0.367188 0.648438 -0.382812 0.707031 -0.40625 C 0.808594 -0.441406 0.875 -0.496094 0.910156 -0.566406 C 0.945312 -0.632812 0.964844 -0.726562 0.964844 -0.839844 L 0.964844 -4.054688 L 0.0273438 -4.054688 L 0.0273438 -4.554688 L 0.964844 -4.554688 C 0.964844 -4.882812 1.011719 -5.203125 1.105469 -5.511719 C 1.203125 -5.820312 1.347656 -6.09375 1.550781 -6.335938 C 1.742188 -6.578125 2 -6.769531 2.316406 -6.917969 C 2.632812 -7.066406 3.003906 -7.136719 3.429688 -7.136719 C 3.8125 -7.136719 4.105469 -7.066406 4.316406 -6.921875 C 4.523438 -6.777344 4.628906 -6.589844 4.628906 -6.355469 Z "/>
</g>
<g id="glyph-0-12">
<path d="M 2.902344 0.148438 C 2.472656 0.148438 2.097656 0.0859375 1.769531 -0.0390625 C 1.441406 -0.164062 1.171875 -0.332031 0.960938 -0.546875 C 0.746094 -0.765625 0.589844 -1.023438 0.484375 -1.324219 C 0.378906 -1.621094 0.328125 -1.945312 0.328125 -2.296875 C 0.328125 -2.617188 0.390625 -2.921875 0.519531 -3.210938 C 0.644531 -3.5 0.820312 -3.753906 1.039062 -3.96875 C 1.261719 -4.195312 1.539062 -4.375 1.875 -4.507812 C 2.207031 -4.640625 2.578125 -4.707031 2.980469 -4.707031 C 3.542969 -4.707031 3.992188 -4.601562 4.320312 -4.386719 C 4.648438 -4.175781 4.8125 -3.886719 4.8125 -3.523438 C 4.8125 -3.300781 4.753906 -3.125 4.640625 -2.988281 C 4.523438 -2.851562 4.320312 -2.785156 4.035156 -2.785156 C 3.804688 -2.785156 3.613281 -2.839844 3.457031 -2.953125 C 3.300781 -3.0625 3.222656 -3.207031 3.222656 -3.382812 C 3.222656 -3.535156 3.246094 -3.683594 3.296875 -3.832031 C 3.347656 -3.980469 3.375 -4.089844 3.382812 -4.167969 C 3.351562 -4.222656 3.308594 -4.265625 3.253906 -4.296875 C 3.203125 -4.324219 3.121094 -4.339844 3.011719 -4.339844 C 2.871094 -4.339844 2.746094 -4.308594 2.632812 -4.242188 C 2.519531 -4.179688 2.414062 -4.0625 2.316406 -3.902344 C 2.21875 -3.746094 2.144531 -3.542969 2.085938 -3.285156 C 2.03125 -3.023438 2 -2.714844 2 -2.351562 C 2 -1.804688 2.128906 -1.363281 2.386719 -1.027344 C 2.644531 -0.691406 2.949219 -0.527344 3.304688 -0.527344 C 3.648438 -0.527344 3.917969 -0.601562 4.121094 -0.753906 C 4.320312 -0.90625 4.5 -1.121094 4.65625 -1.402344 L 5.003906 -1.160156 C 4.90625 -0.972656 4.792969 -0.804688 4.660156 -0.648438 C 4.53125 -0.492188 4.371094 -0.355469 4.1875 -0.234375 C 3.992188 -0.109375 3.796875 -0.015625 3.597656 0.0507812 C 3.398438 0.117188 3.164062 0.148438 2.902344 0.148438 Z "/>
</g>
<g id="glyph-0-13">
<path d="M 5.476562 -4.238281 C 5.339844 -4.214844 5.207031 -4.164062 5.074219 -4.082031 C 4.945312 -3.996094 4.835938 -3.867188 4.75 -3.695312 C 4.484375 -3.132812 4.214844 -2.539062 3.933594 -1.90625 C 3.652344 -1.273438 3.34375 -0.589844 3.003906 0.144531 C 2.8125 0.554688 2.625 0.882812 2.449219 1.128906 C 2.269531 1.375 2.101562 1.566406 1.945312 1.695312 C 1.796875 1.820312 1.652344 1.910156 1.507812 1.964844 C 1.363281 2.019531 1.21875 2.046875 1.070312 2.046875 C 0.777344 2.046875 0.542969 1.964844 0.363281 1.804688 C 0.183594 1.640625 0.09375 1.457031 0.09375 1.253906 C 0.09375 1.167969 0.101562 1.089844 0.121094 1.015625 C 0.140625 0.941406 0.183594 0.863281 0.25 0.785156 C 0.296875 0.714844 0.375 0.660156 0.476562 0.609375 C 0.578125 0.5625 0.695312 0.539062 0.824219 0.539062 C 0.996094 0.539062 1.160156 0.597656 1.316406 0.71875 C 1.476562 0.839844 1.636719 1.003906 1.808594 1.21875 C 1.90625 1.117188 2.035156 0.964844 2.183594 0.761719 C 2.332031 0.558594 2.441406 0.351562 2.511719 0.140625 C 2.144531 -0.628906 1.820312 -1.292969 1.539062 -1.855469 C 1.257812 -2.421875 0.941406 -3.050781 0.589844 -3.746094 C 0.511719 -3.890625 0.410156 -4.007812 0.28125 -4.089844 C 0.152344 -4.167969 0.015625 -4.21875 -0.128906 -4.238281 L -0.128906 -4.574219 L 2.691406 -4.574219 L 2.691406 -4.238281 C 2.589844 -4.234375 2.46875 -4.210938 2.332031 -4.167969 C 2.195312 -4.125 2.128906 -4.070312 2.128906 -4.003906 C 2.128906 -3.976562 2.132812 -3.949219 2.140625 -3.921875 C 2.148438 -3.894531 2.167969 -3.851562 2.191406 -3.796875 C 2.296875 -3.582031 2.445312 -3.28125 2.636719 -2.902344 C 2.828125 -2.519531 3.050781 -2.070312 3.304688 -1.558594 C 3.496094 -1.996094 3.660156 -2.371094 3.792969 -2.683594 C 3.925781 -3 4.054688 -3.308594 4.179688 -3.609375 C 4.210938 -3.6875 4.230469 -3.75 4.234375 -3.792969 C 4.238281 -3.835938 4.242188 -3.867188 4.242188 -3.882812 C 4.242188 -3.9375 4.214844 -3.988281 4.160156 -4.027344 C 4.105469 -4.070312 4.042969 -4.105469 3.96875 -4.136719 C 3.894531 -4.167969 3.820312 -4.191406 3.75 -4.207031 C 3.679688 -4.222656 3.621094 -4.230469 3.574219 -4.238281 L 3.574219 -4.574219 L 5.476562 -4.574219 Z "/>
</g>
<g id="glyph-0-14">
<path d="M 3.085938 0 L 0.179688 0 L 0.179688 -0.335938 C 0.261719 -0.34375 0.339844 -0.351562 0.414062 -0.359375 C 0.488281 -0.367188 0.558594 -0.382812 0.617188 -0.40625 C 0.714844 -0.441406 0.78125 -0.496094 0.816406 -0.566406 C 0.855469 -0.632812 0.871094 -0.726562 0.871094 -0.839844 L 0.871094 -5.949219 C 0.871094 -6.066406 0.847656 -6.171875 0.800781 -6.273438 C 0.753906 -6.375 0.6875 -6.449219 0.609375 -6.503906 C 0.546875 -6.542969 0.453125 -6.582031 0.328125 -6.617188 C 0.207031 -6.652344 0.09375 -6.675781 0 -6.683594 L 0 -7.019531 L 2.324219 -7.136719 L 2.394531 -7.066406 L 2.394531 -0.898438 C 2.394531 -0.785156 2.414062 -0.691406 2.453125 -0.621094 C 2.492188 -0.550781 2.558594 -0.496094 2.648438 -0.457031 C 2.710938 -0.429688 2.777344 -0.402344 2.84375 -0.382812 C 2.910156 -0.359375 2.992188 -0.347656 3.085938 -0.335938 Z "/>
</g>
</g>
</defs>
<g fill="rgb(91.764706%, 95.686275%, 100%)" fill-opacity="1">
<use xlink:href="#glyph-0-0" x="30" y="28.65918"/>
<use xlink:href="#glyph-0-1" x="36" y="28.65918"/>
<use xlink:href="#glyph-0-2" x="39" y="28.65918"/>
<use xlink:href="#glyph-0-3" x="41" y="28.65918"/>
<use xlink:href="#glyph-0-4" x="49" y="28.65918"/>
<use xlink:href="#glyph-0-5" x="54" y="28.65918"/>
<use xlink:href="#glyph-0-6" x="60" y="28.65918"/>
<use xlink:href="#glyph-0-4" x="66" y="28.65918"/>
<use xlink:href="#glyph-0-7" x="71" y="28.65918"/>
<use xlink:href="#glyph-0-8" x="76" y="28.65918"/>
<use xlink:href="#glyph-0-2" x="80" y="28.65918"/>
<use xlink:href="#glyph-0-9" x="82" y="28.65918"/>
<use xlink:href="#glyph-0-10" x="88" y="28.65918"/>
<use xlink:href="#glyph-0-11" x="91" y="28.65918"/>
<use xlink:href="#glyph-0-4" x="95" y="28.65918"/>
<use xlink:href="#glyph-0-12" x="100" y="28.65918"/>
<use xlink:href="#glyph-0-13" x="105" y="28.65918"/>
<use xlink:href="#glyph-0-12" x="110" y="28.65918"/>
<use xlink:href="#glyph-0-14" x="115" y="28.65918"/>
<use xlink:href="#glyph-0-4" x="118" y="28.65918"/>
</g>
</svg>
